<?xml version="1.0" encoding="UTF-8"?>
<svg width="55px" height="21px" viewBox="0 0 55 21" version="1.1" xmlns="http://www.w3.org/2000/svg" xmlns:xlink="http://www.w3.org/1999/xlink">
    <!-- Generator: Sketch 63.1 (92452) - https://sketch.com -->
    <title>Bars / Navigation Bar / x / Left / Back Button</title>
    <desc>Created with Sketch.</desc>
    <g id="Style" stroke="none" stroke-width="1" fill="none" fill-rule="evenodd">
        <g id="Bars-/-Navigation-Bar-/-x-/-Left-/-Back-Button" transform="translate(-9.000000, -12.000000)" fill="#525CA3">
            <path d="M19.5703125,12.1445312 C20.34375,12.1445312 20.9648437,12.7539062 20.9648437,13.5273438 C20.9648437,13.9023438 20.8007812,14.265625 20.53125,14.5351562 L20.53125,14.5351562 L12.328125,22.5273438 L20.53125,30.5429688 C20.8007812,30.8125 20.9648437,31.1640625 20.9648437,31.5507812 C20.9648437,32.3242188 20.34375,32.9335938 19.5703125,32.9335938 C19.1835937,32.9335938 18.8554687,32.7929688 18.5976562,32.5351562 L18.5976562,32.5351562 L9.48046875,23.6171875 C9.15234375,23.3007812 8.98828125,22.9492188 8.98828125,22.5390625 C9,22.1289062 9.15234375,21.7539062 9.48046875,21.4492188 L9.48046875,21.4492188 L18.5976562,12.5429688 C18.8554687,12.2851562 19.1835937,12.1445312 19.5703125,12.1445312 Z M41.4464922,18.894043 C43.6295977,18.894043 44.8498125,20.0146484 44.8498125,21.8740234 L44.8498125,21.8740234 L44.8498125,28 L43.4884844,28 L43.4884844,26.6801758 L43.3556719,26.6801758 C42.7746172,27.6347656 41.795125,28.1577148 40.5998125,28.1577148 C38.8649492,28.1577148 37.5783281,27.128418 37.5783281,25.4931641 C37.5783281,23.8911133 38.7570391,22.9697266 40.8405352,22.8452148 L40.8405352,22.8452148 L43.4220781,22.6875 L43.4220781,21.8740234 C43.4220781,20.7700195 42.7331133,20.1640625 41.3966875,20.1640625 C40.3258867,20.1640625 39.5788164,20.5708008 39.3795977,21.2763672 L39.3795977,21.2763672 L37.9352617,21.2763672 C38.1261797,19.840332 39.5373125,18.894043 41.4464922,18.894043 Z M50.7338047,18.894043 C52.9086094,18.894043 54.2367344,20.1972656 54.4857578,21.7910156 L54.4857578,21.7910156 L53.0414219,21.7910156 C52.809,20.902832 52.0204258,20.1806641 50.7338047,20.1806641 C49.1234531,20.1806641 48.1107578,21.4672852 48.1107578,23.4926758 C48.1107578,25.5595703 49.1400547,26.8710938 50.7338047,26.8710938 C51.937418,26.8710938 52.7757969,26.3149414 53.0414219,25.3022461 L53.0414219,25.3022461 L54.4857578,25.3022461 C54.2284336,26.9458008 52.8920078,28.1577148 50.7421055,28.1577148 C48.2352695,28.1577148 46.6332187,26.3398438 46.6332187,23.4926758 C46.6332187,20.7036133 48.2269687,18.894043 50.7338047,18.894043 Z M32.109375,16.0219727 C34.309082,16.0219727 35.6538086,17.1757812 35.6538086,19.0102539 C35.6538086,20.2553711 34.7407227,21.3842773 33.5869141,21.5917969 L33.5869141,21.5917969 L33.5869141,21.7246094 C35.222168,21.9321289 36.2597656,23.0527344 36.2597656,24.6381836 C36.2597656,26.746582 34.7490234,28 32.2006836,28 L32.2006836,28 L27.5273437,28 L27.5273437,16.0219727 Z M57.6968984,15.4990234 L57.6968984,22.9614258 L57.8297109,22.9614258 L61.7144766,19.0517578 L63.4659414,19.0517578 L59.6143789,22.8867188 L63.7232656,28 L61.9053945,28 L58.5518789,23.8081055 L57.6968984,24.6049805 L57.6968984,28 L56.2691641,28 L56.2691641,15.4990234 L57.6968984,15.4990234 Z M43.4220781,23.8413086 L41.0148516,23.9990234 C39.6535234,24.090332 39.0558672,24.5634766 39.0558672,25.4599609 C39.0558672,26.3730469 39.8278398,26.9042969 40.8654375,26.9042969 C42.3346758,26.9042969 43.4220781,25.9414062 43.4220781,24.6630859 L43.4220781,24.6630859 L43.4220781,23.8413086 Z M31.8354492,22.4716797 L29.0214844,22.4716797 L29.0214844,26.6801758 L31.9765625,26.6801758 C33.777832,26.6801758 34.7241211,25.949707 34.7241211,24.5634766 C34.7241211,23.1772461 33.7446289,22.4716797 31.8354492,22.4716797 L31.8354492,22.4716797 Z M31.7939453,17.3417969 L29.0214844,17.3417969 L29.0214844,21.1850586 L31.4121094,21.1850586 C33.2216797,21.1850586 34.1430664,20.5375977 34.1430664,19.2675781 C34.1430664,18.0473633 33.2797852,17.3417969 31.7939453,17.3417969 L31.7939453,17.3417969 Z" id="Tint-Color"></path>
        </g>
    </g>
</svg>