<svg xmlns="http://www.w3.org/2000/svg" height="20" viewBox="0 0 1333.82 280.715">
  <g id="Group_10" data-name="Group 10" transform="translate(-428 -3746.326)">
    <g id="AZ" transform="translate(-142 -32)">
      <text id="AZCHAO" transform="translate(577 3966)" fill="#fbb63f" font-size="150" font-family="Lato-BlackItalic, Lato" font-weight="800" font-style="italic"><tspan x="0" y="0">AZCHAO</tspan></text>
      <path id="Path_5" data-name="Path 5" d="M1099.886,1709.589H562.755l-9.882,20.333v1.707h535.459Z" transform="translate(93 2198)" fill="#fbb63f"/>
    </g>
    <g id="fitness" transform="translate(-4 2258.412)">
      <g id="Group_8" data-name="Group 8">
        <text id="FITNESS-2" data-name="FITNESS" transform="translate(1209 1686)" fill="#434244" font-size="150" font-family="Lato-BlackItalic, Lato" font-weight="800" font-style="italic"><tspan x="0" y="0">FITNESS</tspan></text>
      </g>
      <path id="Path_4" data-name="Path 4" d="M1093,1709.589H562.631l-9.757,22.131h528.719Z" transform="translate(672 -172)" fill="#434244" stroke="#707070" stroke-width="1"/>
    </g>
    <g id="Group_9" data-name="Group 9" transform="matrix(0.105, -0.995, 0.995, 0.105, 21.635, 4481.639)">
      <g id="weights" transform="translate(571 980)">
        <g id="Group_2" data-name="Group 2" transform="translate(0 0)">
          <g id="Group_1" data-name="Group 1">
            <path id="Path_1" data-name="Path 1" d="M262.505,203.166H257.49V181.637a8.859,8.859,0,0,0-8.859-8.859H234.163v-1.241a8.859,8.859,0,0,0-8.859-8.859H199.614a8.859,8.859,0,0,0-8.859,8.859v31.628H80.609v-31.4a8.859,8.859,0,0,0-8.859-8.859H46.06a8.859,8.859,0,0,0-8.859,8.859v1.011H22.734a8.859,8.859,0,0,0-8.859,8.859v21.528H8.859a8.859,8.859,0,0,0,0,17.718h5.016v21.528a8.859,8.859,0,0,0,8.859,8.859H37.2v1.471a8.859,8.859,0,0,0,8.859,8.859H71.751a8.859,8.859,0,0,0,8.859-8.859V220.884H190.756v31.628a8.859,8.859,0,0,0,8.859,8.859H225.3a8.859,8.859,0,0,0,8.859-8.859v-1.241h14.468a8.859,8.859,0,0,0,8.859-8.859V220.883h5.015a8.859,8.859,0,1,0,0-17.718Z" transform="translate(0 -162.678)" fill="#b19292"/>
          </g>
        </g>
      </g>
      <g id="weights-2" data-name="weights" transform="translate(571 984.74)">
        <g id="Group_2-2" data-name="Group 2" transform="translate(0 0)">
          <g id="Group_1-2" data-name="Group 1">
            <path id="Path_1-2" data-name="Path 1" d="M262.505,203.166H257.49V181.637a8.859,8.859,0,0,0-8.859-8.859H234.163v-1.241a8.859,8.859,0,0,0-8.859-8.859H199.614a8.859,8.859,0,0,0-8.859,8.859v31.628H80.609v-31.4a8.859,8.859,0,0,0-8.859-8.859H46.06a8.859,8.859,0,0,0-8.859,8.859v1.011H22.734a8.859,8.859,0,0,0-8.859,8.859v21.528H8.859a8.859,8.859,0,0,0,0,17.718h5.016v21.528a8.859,8.859,0,0,0,8.859,8.859H37.2v1.471a8.859,8.859,0,0,0,8.859,8.859H71.751a8.859,8.859,0,0,0,8.859-8.859V220.884H190.756v31.628a8.859,8.859,0,0,0,8.859,8.859H225.3a8.859,8.859,0,0,0,8.859-8.859v-1.241h14.468a8.859,8.859,0,0,0,8.859-8.859V220.883h5.015a8.859,8.859,0,1,0,0-17.718Z" transform="translate(0 -162.678)" fill="#434244"/>
          </g>
        </g>
      </g>
    </g>
  </g>
</svg>
